<svg xmlns="http://www.w3.org/2000/svg" width="68.721" height="91.113" viewBox="0 0 68.721 91.113">
  <defs>
    <style>
      .cls-1 {
        fill: #00a716;
      }

      .cls-2, .cls-3 {
        opacity: 0;
      }

      .cls-3, .cls-4 {
        fill: #fff;
      }
    </style>
  </defs>
  <g id="locationOrganization" transform="translate(-59.717 511.9)">
    <path id="Path_9" data-name="Path 9" class="cls-1" d="M34.645-31.82A34.358,34.358,0,0,1,67.114-6.948c5.282,17.364-7.068,32.115-7.068,32.115L34.4,58.722,10.888,29.007,4.555,20.328,2.538,16.313.989,11.889.278,8.266-.057,6.2a13.518,13.518,0,0,1-.167-4.34C0-1.16,1.153-12.027,8.546-20.385a51.559,51.559,0,0,1,7.146-6.273S22.683-31.82,34.645-31.82Z" transform="translate(60.011 -479.82)"/>
    <path id="Path_1" data-name="Path 1" class="cls-2" d="M89.266-511.633a33.855,33.855,0,0,0-18.728,9.413,34.539,34.539,0,0,0-10.284,20.374,43.439,43.439,0,0,0,.35,11.69A38,38,0,0,0,65.475-458C66.4-456.544,92.331-422.31,93.26-421.3A1.405,1.405,0,0,0,95.5-421.4c.964-1.014,26.664-35.107,27.645-36.637a36.884,36.884,0,0,0,5.273-14.253,45.028,45.028,0,0,0-.017-9.715,35.409,35.409,0,0,0-7.41-17.171A45.425,45.425,0,0,0,115-505.014a33.949,33.949,0,0,0-15.767-6.619A46.689,46.689,0,0,0,89.266-511.633ZM96.974-509a32.3,32.3,0,0,1,15.592,5.747,44.123,44.123,0,0,1,7.586,7.7,40.165,40.165,0,0,1,4.24,8.576,26.929,26.929,0,0,1,1.4,9.929,23.039,23.039,0,0,1-.42,5.961,34.481,34.481,0,0,1-4.5,11.263c-1.209,1.886-26.313,35.089-26.523,35.089-.175,0-24.369-31.761-25.945-34.057a32.6,32.6,0,0,1-4.625-10.338,27.727,27.727,0,0,1-.911-9.128,27.584,27.584,0,0,1,1.507-8.932,40.855,40.855,0,0,1,4.169-8.363,43.522,43.522,0,0,1,7.586-7.7A33.573,33.573,0,0,1,88.3-508.537a33.612,33.612,0,0,1,6.482-.587C95.082-509.107,96.063-509.053,96.974-509Z" transform="translate(-0.238 0)"/>
    <path id="Path_2" data-name="Path 2" class="cls-3" d="M139.042-451.626a21.437,21.437,0,0,0-9.508,4.475c-1.472,1.208-1.726,2.058-.9,2.983.575.642,1.218.472,2.707-.661a18.3,18.3,0,0,1,11.673-4.078,16.308,16.308,0,0,1,6.784,1.265,22.078,22.078,0,0,1,12.4,13.821,26.073,26.073,0,0,1,0,15.18c-2.876,8.987-10.574,15.086-19.083,15.086a17.527,17.527,0,0,1-9-2.284c-7.021-3.8-11.4-11.631-11.4-20.373a23.552,23.552,0,0,1,3.637-13.047c1.184-1.945,1.218-2.87.118-3.379-.694-.321-1.235-.019-2.03,1.076a27.525,27.525,0,0,0-3.857,9.138,36.007,36.007,0,0,0-.338,10.46c1.641,10.743,9.373,19.391,18.88,21.128a28.027,28.027,0,0,0,7.748,0c9.558-1.737,17.341-10.422,18.9-21.09a37.755,37.755,0,0,0-.017-8.742c-1.675-10.668-9.372-19.239-18.846-20.958A29.652,29.652,0,0,0,139.042-451.626Z" transform="translate(-48.91 -48.681)"/>
    <g id="home" transform="translate(69.939 -500.569)">
      <path id="Path_34" data-name="Path 34" class="cls-4" d="M22.747-511.642c-1.171.387-.945.17-11.646,10.853C5.471-495.169.729-490.351.55-490.087a4.8,4.8,0,0,0-.52,3.92,4.446,4.446,0,0,0,4.156,3.07l.746.066.028,7.708c.028,7.556.038,7.717.227,8.227a5.367,5.367,0,0,0,3.618,3.533c.444.132,1.152.151,5.053.151,4.364,0,4.553-.009,4.855-.189a1.736,1.736,0,0,0,.491-.491c.179-.3.189-.491.189-6.309,0-4.09.038-6.121.1-6.376a2.588,2.588,0,0,1,1.105-1.436l.444-.265h5.97l.463.283a2.749,2.749,0,0,1,1.115,1.625c.028.2.057,3,.057,6.243,0,6.376-.019,6.13.52,6.631l.255.236,4.543.028c3.041.019,4.713-.009,5.044-.076a5.572,5.572,0,0,0,3.41-2.6c.661-1.322.623-.784.661-9.266l.028-7.67.775-.066a4.4,4.4,0,0,0,3.929-2.6,3.022,3.022,0,0,0,.34-1.889,3.034,3.034,0,0,0-.359-1.937c-.359-.756-.368-.765-10.721-11.117s-10.362-10.362-11.117-10.721a3.091,3.091,0,0,0-1.795-.378A4.779,4.779,0,0,0,22.747-511.642Z" transform="translate(0.175 511.75)"/>
    </g>
  </g>
</svg>
