<svg xmlns="http://www.w3.org/2000/svg" width="79.814" height="105.82" viewBox="0 0 79.814 105.82">
  <defs>
    <style>
      .cls-1 {
        fill: #4d8af0;
      }

      .cls-2, .cls-3 {
        opacity: 0;
      }

      .cls-3, .cls-4 {
        fill: #fff;
      }
    </style>
  </defs>
  <g id="locationStore" transform="translate(-59.717 511.9)">
    <path id="Path_9" data-name="Path 9" class="cls-1" d="M40.285-31.82A39.9,39.9,0,0,1,77.994-2.933c6.135,20.167-8.209,37.3-8.209,37.3L40,73.336l-27.3-34.511L5.338,28.746,2.995,24.082,1.2,18.944.371,14.736l-.389-2.4A15.7,15.7,0,0,1-.213,7.3C.05,3.789,1.387-8.832,9.973-18.539a59.882,59.882,0,0,1,8.3-7.285S26.392-31.82,40.285-31.82Z" transform="translate(60.011 -479.778)"/>
    <path id="Path_1" data-name="Path 1" class="cls-2" d="M93.988-511.59a39.319,39.319,0,0,0-21.75,10.932A40.113,40.113,0,0,0,60.294-477a50.451,50.451,0,0,0,.407,13.577A44.136,44.136,0,0,0,66.357-449.3c1.078,1.695,31.191,41.455,32.27,42.633a1.632,1.632,0,0,0,2.6-.124c1.119-1.178,30.967-40.773,32.107-42.551a42.836,42.836,0,0,0,6.124-16.553,52.3,52.3,0,0,0-.02-11.283,41.125,41.125,0,0,0-8.607-19.942,52.767,52.767,0,0,0-6.958-6.778,39.427,39.427,0,0,0-18.312-7.688A54.208,54.208,0,0,0,93.988-511.59Zm8.952,3.059a37.512,37.512,0,0,1,18.108,6.675,51.254,51.254,0,0,1,8.81,8.948,46.65,46.65,0,0,1,4.924,9.961,31.276,31.276,0,0,1,1.628,11.531c0,4.092-.061,4.918-.488,6.923a40.048,40.048,0,0,1-5.229,13.081c-1.4,2.191-30.561,40.753-30.8,40.753-.2,0-28.3-36.888-30.133-39.554a37.861,37.861,0,0,1-5.371-12.007,32.2,32.2,0,0,1-1.058-10.6,32.039,32.039,0,0,1,1.75-10.374,47.459,47.459,0,0,1,4.842-9.713,50.545,50.545,0,0,1,8.81-8.948,38.991,38.991,0,0,1,14.141-6.138,39.027,39.027,0,0,1,7.528-.682C100.743-508.656,101.882-508.594,102.94-508.532Z" transform="translate(-0.229 0)"/>
    <path id="Path_2" data-name="Path 2" class="cls-3" d="M142.114-451.583a24.9,24.9,0,0,0-11.042,5.2c-1.709,1.4-2,2.39-1.041,3.465.668.746,1.415.548,3.144-.768a21.257,21.257,0,0,1,13.557-4.736,18.94,18.94,0,0,1,7.879,1.469c6.622,2.631,12.045,8.684,14.4,16.052a30.281,30.281,0,0,1,0,17.631c-3.34,10.438-12.28,17.521-22.163,17.521a20.357,20.357,0,0,1-10.453-2.653c-8.154-4.408-13.243-13.508-13.243-23.661a27.353,27.353,0,0,1,4.224-15.153c1.375-2.259,1.415-3.333.138-3.925-.806-.373-1.434-.022-2.358,1.25a31.967,31.967,0,0,0-4.48,10.613,41.813,41.813,0,0,0-.393,12.148c1.906,12.477,10.885,22.521,21.928,24.538a32.548,32.548,0,0,0,9,0c11.1-2.017,20.14-12.1,21.947-24.494a43.845,43.845,0,0,0-.02-10.153c-1.945-12.39-10.885-22.345-21.888-24.341A34.428,34.428,0,0,0,142.114-451.583Z" transform="translate(-47.072 -46.852)"/>
    <g id="shopping-cart" transform="translate(67.699 -489.417)">
      <path id="Path_25" data-name="Path 25" class="cls-4" d="M17.432,31.7H46.181a1.585,1.585,0,0,0,1.524-1.15L54.045,8.361a1.585,1.585,0,0,0-1.524-2.021H13.777l-1.133-5.1A1.585,1.585,0,0,0,11.1,0H1.585a1.585,1.585,0,0,0,0,3.17h8.24l5.723,25.755a4.755,4.755,0,0,0,1.889,9.119H46.181a1.585,1.585,0,1,0,0-3.17H17.437a1.585,1.585,0,0,1,0-3.17ZM50.42,9.511,44.985,28.533H18.708L14.481,9.511Zm0,0" transform="translate(0 0)"/>
      <path id="Path_26" data-name="Path 26" class="cls-4" d="M150,364.755A4.755,4.755,0,1,0,154.755,360,4.761,4.761,0,0,0,150,364.755Zm4.755-1.585a1.585,1.585,0,1,1-1.585,1.585A1.587,1.587,0,0,1,154.755,363.17Zm0,0" transform="translate(-134.148 -321.956)"/>
      <path id="Path_27" data-name="Path 27" class="cls-4" d="M362,364.755A4.755,4.755,0,1,0,366.756,360,4.761,4.761,0,0,0,362,364.755Zm4.756-1.585a1.585,1.585,0,1,1-1.585,1.585A1.587,1.587,0,0,1,366.756,363.17Zm0,0" transform="translate(-323.745 -321.956)"/>
    </g>
  </g>
</svg>
