<svg xmlns="http://www.w3.org/2000/svg" width="60.832" height="80.064" viewBox="0 0 60.832 80.064">
  <defs>
    <style>
      .cls-1 {
        fill: red;
      }

      .cls-2 {
        opacity: 0;
      }

      .cls-3 {
        fill: #fff;
      }
    </style>
  </defs>
  <g id="locationSOS" transform="translate(-59.717 511.9)">
    <path id="Path_9" data-name="Path 9" class="cls-1" d="M30.634-31.82A30.39,30.39,0,0,1,59.375-9.955c4.676,15.264-6.257,28.232-6.257,28.232l-22.7,29.5L9.6,21.653,4,14.023l-1.786-3.53L.842,6.6.213,3.419-.084,1.6A11.8,11.8,0,0,1-.232-2.21c.2-2.656,1.219-12.21,7.763-19.557a45.555,45.555,0,0,1,6.326-5.514S20.045-31.82,30.634-31.82Z" transform="translate(60.011 -479.866)"/>
    <path id="Path_1" data-name="Path 1" class="cls-2" d="M85.909-511.665a30.052,30.052,0,0,0-16.579,8.271,30.27,30.27,0,0,0-9.1,17.9,37.894,37.894,0,0,0,.31,10.273,33.253,33.253,0,0,0,4.311,10.679c.822,1.282,23.775,31.365,24.6,32.257a1.25,1.25,0,0,0,1.985-.094c.853-.891,23.6-30.849,24.473-32.194a32.263,32.263,0,0,0,4.668-12.524,39.277,39.277,0,0,0-.016-8.537,31,31,0,0,0-6.56-15.089,40.091,40.091,0,0,0-5.3-5.129,30.171,30.171,0,0,0-13.958-5.816A41.619,41.619,0,0,0,85.909-511.665Zm6.824,2.314a28.723,28.723,0,0,1,13.8,5.05,38.917,38.917,0,0,1,6.715,6.77A35.193,35.193,0,0,1,117-489.994a23.5,23.5,0,0,1,1.241,8.725,20.1,20.1,0,0,1-.372,5.238,30.174,30.174,0,0,1-3.986,9.9c-1.07,1.657-23.294,30.834-23.48,30.834-.155,0-21.572-27.91-22.968-29.927a28.543,28.543,0,0,1-4.094-9.084,24.193,24.193,0,0,1-.806-8.021,24.08,24.08,0,0,1,1.334-7.849,35.8,35.8,0,0,1,3.691-7.349,38.381,38.381,0,0,1,6.715-6.77,29.833,29.833,0,0,1,10.778-4.644,29.961,29.961,0,0,1,5.738-.516C91.058-509.445,91.926-509.4,92.733-509.351Z" transform="translate(-0.248)"/>
    <path id="Path_2" data-name="Path 2" class="cls-3" d="M137.457-451.673A20.713,20.713,0,0,0,128.741-448c-1.349.993-1.582,1.69-.822,2.45.527.527,1.117.388,2.481-.543a18.045,18.045,0,0,1,10.7-3.35,16.481,16.481,0,0,1,6.219,1.039,19.009,19.009,0,0,1,11.368,11.352,19.291,19.291,0,0,1,0,12.469,18.693,18.693,0,0,1-17.494,12.391,17.556,17.556,0,0,1-8.251-1.877A18.475,18.475,0,0,1,122.491-430.8a17.872,17.872,0,0,1,3.334-10.716c1.086-1.6,1.117-2.357.109-2.776-.636-.264-1.132-.016-1.861.884a21.438,21.438,0,0,0-3.536,7.506,26.542,26.542,0,0,0-.31,8.592,21.321,21.321,0,0,0,17.308,17.354,28.648,28.648,0,0,0,7.1,0,21.23,21.23,0,0,0,17.323-17.323,27.807,27.807,0,0,0-.016-7.18,21.259,21.259,0,0,0-17.277-17.215A30.3,30.3,0,0,0,137.457-451.673Z" transform="translate(-50.943 -50.705)"/>
    <g id="Group_9" data-name="Group 9" transform="translate(74.354 -487.182)">
      <g id="Group_2" data-name="Group 2" transform="translate(0 0)">
        <g id="Group_1" data-name="Group 1">
          <path id="Path_13" data-name="Path 13" class="cls-3" d="M159.39,188.4a5.385,5.385,0,0,1-4-1.717,1.18,1.18,0,1,1,1.749-1.585,3.063,3.063,0,0,0,2.251.942,1.455,1.455,0,0,0,1.509-.971c.114-.64-.843-1.046-1.139-1.156-1.393-.514-2.63-1.064-2.682-1.088a1.172,1.172,0,0,1-.164-.089,2.91,2.91,0,0,1-1.3-2.88,3.214,3.214,0,0,1,2.328-2.6,5.291,5.291,0,0,1,4.608,1.008,1.18,1.18,0,0,1-1.513,1.812,2.931,2.931,0,0,0-2.414-.56.845.845,0,0,0-.672.671.566.566,0,0,0,.192.525c.323.141,1.34.58,2.432.982,2.3.848,2.873,2.511,2.645,3.785A3.758,3.758,0,0,1,159.39,188.4Z" transform="translate(-155.083 -177.065)"/>
        </g>
      </g>
      <g id="Group_4" data-name="Group 4" transform="translate(23.115 0)">
        <g id="Group_3" data-name="Group 3">
          <path id="Path_14" data-name="Path 14" class="cls-3" d="M308.437,188.4a5.386,5.386,0,0,1-4-1.717,1.18,1.18,0,0,1,1.749-1.585,3.064,3.064,0,0,0,2.251.942,1.455,1.455,0,0,0,1.509-.971c.114-.64-.842-1.046-1.138-1.156-1.393-.514-2.63-1.064-2.682-1.088a1.172,1.172,0,0,1-.164-.089,2.91,2.91,0,0,1-1.3-2.88,3.214,3.214,0,0,1,2.328-2.6,5.291,5.291,0,0,1,4.608,1.008,1.18,1.18,0,0,1-1.513,1.812,2.932,2.932,0,0,0-2.414-.56.845.845,0,0,0-.672.671.566.566,0,0,0,.192.525c.323.141,1.34.58,2.432.982,2.3.848,2.873,2.511,2.646,3.785A3.759,3.759,0,0,1,308.437,188.4Z" transform="translate(-304.13 -177.065)"/>
        </g>
      </g>
      <g id="Group_5" data-name="Group 5" transform="translate(9.985 0)">
        <path id="Path_15" data-name="Path 15" class="cls-3" d="M225.133,188.4a5.666,5.666,0,1,1,5.666-5.666A5.672,5.672,0,0,1,225.133,188.4Zm0-8.971a3.3,3.3,0,1,0,3.305,3.3A3.309,3.309,0,0,0,225.133,179.426Z" transform="translate(-219.467 -177.065)"/>
      </g>
    </g>
  </g>
</svg>
