<svg xmlns="http://www.w3.org/2000/svg" width="329.565" height="433.756" viewBox="0 0 329.565 433.756">
  <defs>
    <style>
      .cls-1 {
        fill: #ffa200;
      }

      .cls-2 {
        opacity: 0;
      }

      .cls-3 {
        fill: #fff;
      }
    </style>
  </defs>
  <g id="locationRelief" transform="translate(-59.717 511.9)">
    <path id="Path_9" data-name="Path 9" class="cls-1" d="M167.263-31.82c57.366,0,130.378,35.761,155.708,118.457s-33.9,152.952-33.9,152.952l-123,159.806L53.333,257.875,22.959,216.541l-9.674-19.123L5.861,176.35,2.449,159.094.844,149.262s-1.886-6.276-.8-20.667S6.646,62.446,42.1,22.64C55.325,7.793,76.371-7.235,76.371-7.235S109.9-31.82,167.263-31.82Z" transform="translate(60.011 -478.922)"/>
    <path id="Path_1" data-name="Path 1" class="cls-2" d="M200.314-510.63A162.809,162.809,0,0,0,110.5-465.819c-27.558,26.853-43.774,58.788-49.319,96.991-2.1,14.655-1.26,41.592,1.68,55.654,4.285,20.33,12.855,41.507,23.357,57.856,4.453,6.946,128.8,169.925,133.255,174.754,3.193,3.388,7.394,3.219,10.754-.508C234.846-85.9,358.1-248.2,362.808-255.487a174.788,174.788,0,0,0,25.29-67.852c1.68-11.52,1.6-34.815-.084-46.251a167.949,167.949,0,0,0-35.54-81.744c-6.553-8.047-20.837-21.855-28.735-27.784a163.456,163.456,0,0,0-75.618-31.512C236.779-512.324,211.4-512.324,200.314-510.63Zm36.969,12.537c23.609,1.271,53.6,12.283,74.777,27.361,10.334,7.454,29.071,26.26,36.38,36.679,7.142,10.25,16.552,29.14,20.333,40.829,5.461,17.2,6.722,25.836,6.722,47.267,0,16.772-.252,20.161-2.016,28.378-4.033,19.229-11.763,38.373-21.593,53.621-5.8,8.979-126.2,167.045-127.206,167.045-.84,0-116.871-151.2-124.433-162.132a154.633,154.633,0,0,1-22.181-49.216c-4.033-15.841-4.957-24.82-4.369-43.456.5-17.28,2.185-27.107,7.226-42.524,3.529-10.927,13.191-29.987,20-39.813,7.31-10.419,26.046-29.309,36.38-36.679,16.3-11.6,38.313-21.092,58.394-25.158,8.738-1.779,25.542-3.3,31.087-2.8C228.209-498.6,232.914-498.347,237.283-498.092Z" transform="translate(-0.047 0)"/>
    <path id="Path_2" data-name="Path 2" class="cls-3" d="M214.524-450.722c-17.98,3.277-34.028,10.082-47.219,19.913-7.31,5.377-8.57,9.158-4.453,13.275,2.857,2.857,6.049,2.1,13.443-2.941,18.4-12.519,36.38-18.148,57.973-18.148,13.7.084,22.013,1.428,33.692,5.629a102.983,102.983,0,0,1,61.586,61.5c7.478,20.921,7.478,46.631,0,67.552-14.283,39.993-52.512,67.132-94.774,67.132-16.8,0-29.827-2.941-44.7-10.166a100.093,100.093,0,0,1-56.629-90.657c0-21.929,5.461-39.573,18.064-58.058,5.881-8.654,6.049-12.771.588-15.039-3.445-1.428-6.133-.084-10.082,4.789-8.066,10.25-15.376,25.794-19.156,40.665-2.941,11.763-3.781,34.112-1.68,46.547,8.15,47.807,46.547,86.288,93.766,94.018,10.166,1.6,28.4,1.6,38.481,0,47.471-7.73,86.12-46.379,93.85-93.85,1.68-10.251,1.6-29.239-.084-38.9-8.318-47.471-46.547-85.616-93.6-93.262C243.931-452.234,222.842-452.318,214.524-450.722Z" transform="translate(-9.635 -9.59)"/>
    <g id="love" transform="translate(162.801 91.167)">
      <path id="Path_21" data-name="Path 21" class="cls-3" d="M124.051-495.368c-6.162,1.565-10.928,5.97-13.407,12.372a25.552,25.552,0,0,0-.361,17.138c2.5,7.39,7.991,13.624,24.191,27.489l8.762,7.51H145.5l7.2-6.186c10.158-8.714,12.565-10.9,16.368-14.828,7.63-7.9,10.687-14.274,10.687-22.169-.024-8.786-4.5-16.681-11.409-20a18.241,18.241,0,0,0-9.412-1.733c-2.888.1-3.611.193-5.127.746a17.339,17.339,0,0,0-7.077,4.742l-2.359,2.383-2.335-2.383a16.944,16.944,0,0,0-7.269-4.766c-1.589-.554-2.287-.65-5.32-.722A17.918,17.918,0,0,0,124.051-495.368Zm8.786,5.079c3.514,1.011,6.138,3.49,9.436,8.93a2.673,2.673,0,0,0,2.913.891c.674-.193,1.035-.6,2.19-2.407,2.551-4.02,5.344-6.475,8.521-7.462a15.845,15.845,0,0,1,7.366-.1c6.788,1.805,11.41,8.4,11.434,16.3,0,8.04-4.164,14.587-16.007,25.106-4.959,4.429-14.081,12.156-14.322,12.156S135-444.6,130.044-449.032c-11.843-10.519-16.007-17.066-16.007-25.106a17.582,17.582,0,0,1,5.151-12.757,13.382,13.382,0,0,1,8.28-3.875A12.255,12.255,0,0,1,132.837-490.289Z" transform="translate(-82.667)"/>
      <path id="Path_22" data-name="Path 22" class="cls-3" d="M6.409-395.427a9.684,9.684,0,0,0-5.56,5.079L.2-389.024.127-369.672c-.072,21.5-.072,21.447,1.516,26.189a28.981,28.981,0,0,0,7.462,12.011c3.177,3.2,5.608,4.766,13.407,8.665l6.451,3.225v13.889l.626.65.65.626H58.017l.65-.626.626-.65v-17.475c0-14.057-.072-17.716-.337-18.727a14.31,14.31,0,0,0-5.055-7.679c-2.479-1.878-4.068-2.479-7.967-3.105a34.336,34.336,0,0,1-10.086-3.442c-2.527-1.3-2.913-1.589-6.764-5.368-4.549-4.4-5.753-5.223-8.28-5.44l-1.444-.144-.072-10.976-.072-10.976-.7-1.444a10.677,10.677,0,0,0-4.6-4.573,7.24,7.24,0,0,0-3.851-.794A8.714,8.714,0,0,0,6.409-395.427Zm5.416,5.055a4.375,4.375,0,0,1,2.118,2.19c.433.77.457,1.637.53,11.554l.072,10.711-1.155.842a11.13,11.13,0,0,0-2.07,2.166,8.8,8.8,0,0,0-1.565,6.138c.144,3.683.313,3.9,8.473,12.083,4.622,4.622,7.221,7.077,7.679,7.2a2.573,2.573,0,0,0,2.479-.746,2.035,2.035,0,0,0,.578-1.733V-341.1l-6.716-6.764c-3.683-3.707-6.884-7.077-7.1-7.51a5.117,5.117,0,0,1,.963-5.392,5.145,5.145,0,0,1,5.223-.794,47.177,47.177,0,0,1,4.622,4.164c4.116,4.02,5.681,5.127,9.749,6.836a59.1,59.1,0,0,0,9.869,2.913,10.793,10.793,0,0,1,5.945,2.84,9.679,9.679,0,0,1,2.744,5.7c.1.867.193,7.943.217,15.718v14.154h-20.7V-315.8c0-6.282-.024-6.6-.481-7.1-.289-.289-3.948-2.263-8.184-4.381-8.088-4.068-10.23-5.416-12.757-8.088a27.376,27.376,0,0,1-7-14.057c-.265-1.42-.337-5.657-.337-19.858,0-18,0-18.053.505-19.016a4.365,4.365,0,0,1,2.142-2.118A5.544,5.544,0,0,1,11.825-390.372Z" transform="translate(0 -75.895)"/>
      <path id="Path_23" data-name="Path 23" class="cls-3" d="M312.288-395.427a9.684,9.684,0,0,0-5.56,5.079l-.65,1.324-.072,10.976-.072,10.976-1.444.144c-2.527.217-3.731,1.035-8.28,5.464-3.875,3.779-4.236,4.068-6.74,5.344a35.437,35.437,0,0,1-10.11,3.442c-3.9.6-5.488,1.228-7.967,3.105a14.31,14.31,0,0,0-5.055,7.679c-.265,1.011-.337,4.67-.337,18.727v17.475l.626.65.65.626h27.778l.65-.626.626-.65v-13.865l4.4-2.239c4.309-2.19,4.381-2.263,4.742-3.25a1.857,1.857,0,0,0-.072-1.878,2.617,2.617,0,0,0-2.768-1.42,91.154,91.154,0,0,0-10.615,5.44c-.481.505-.505.794-.505,7.1v6.571h-20.7v-14.154c0-7.775.12-14.924.241-15.887a9.033,9.033,0,0,1,2.7-5.512c1.589-1.613,3.3-2.359,6.716-2.937a39.667,39.667,0,0,0,13.744-5.2,45.71,45.71,0,0,0,5.368-4.694,44.114,44.114,0,0,1,4.381-3.948,5.192,5.192,0,0,1,5.223.794,5.117,5.117,0,0,1,.963,5.392c-.217.433-3.418,3.8-7.1,7.51l-6.716,6.764v1.131a2.035,2.035,0,0,0,.578,1.733,2.6,2.6,0,0,0,2.5.746c.433-.12,3.033-2.576,7.654-7.2,8.16-8.184,8.328-8.4,8.473-12.083a8.8,8.8,0,0,0-1.565-6.138,11.131,11.131,0,0,0-2.07-2.166l-1.155-.842.072-10.711c.072-10.423.1-10.736.578-11.674a4.412,4.412,0,0,1,4.188-2.527,4.457,4.457,0,0,1,4.236,2.648c.433.794.457,1.709.457,18.9,0,19.329-.024,19.618-1.252,23.541a29.253,29.253,0,0,1-1.42,3.587c-1.011,2.142-1.059,3.057-.144,4.068a2.524,2.524,0,0,0,3.274.361c.794-.505,2.166-3.322,3.129-6.379,1.348-4.285,1.372-4.5,1.3-25.563l-.072-19.353-.7-1.444a10.677,10.677,0,0,0-4.6-4.573,7.24,7.24,0,0,0-3.851-.794A8.714,8.714,0,0,0,312.288-395.427Z" transform="translate(-201.893 -75.895)"/>
      <path id="Path_24" data-name="Path 24" class="cls-3" d="M449.626-137.374a2.042,2.042,0,0,0-.626,1.781,2.042,2.042,0,0,0,.626,1.781,2.042,2.042,0,0,0,1.781.626,2.14,2.14,0,0,0,2.407-2.407,2.042,2.042,0,0,0-.626-1.781,2.041,2.041,0,0,0-1.781-.626A2.042,2.042,0,0,0,449.626-137.374Z" transform="translate(-340.844 -271.677)"/>
    </g>
  </g>
</svg>
