<svg xmlns="http://www.w3.org/2000/svg" width="69.119" height="90.971" viewBox="0 0 69.119 90.971">
  <defs>
    <style>
      .cls-1 {
        fill: #346fa2;
      }

      .cls-2 {
        opacity: 0;
      }

      .cls-3 {
        fill: #fff;
      }
    </style>
  </defs>
  <g id="locationStore" transform="translate(-59.717 511.9)">
    <path id="Path_9" data-name="Path 9" class="cls-1" d="M34.848-31.82A34.53,34.53,0,0,1,67.5-6.976C72.817,10.368,60.395,25.1,60.395,25.1L34.6,58.618,10.953,28.937l-6.37-8.669L2.554,16.258,1,11.839.281,8.22-.055,6.158A13.412,13.412,0,0,1-.223,1.823C0-1.195,1.162-12.05,8.6-20.4a51.761,51.761,0,0,1,7.188-6.266S22.816-31.82,34.848-31.82Z" transform="translate(60.011 -479.837)"/>
    <path id="Path_1" data-name="Path 1" class="cls-2" d="M89.437-511.634a34.146,34.146,0,0,0-18.837,9.4,34.394,34.394,0,0,0-10.344,20.342,43.057,43.057,0,0,0,.352,11.672,37.783,37.783,0,0,0,4.9,12.134c.934,1.457,27.014,35.638,27.947,36.651a1.42,1.42,0,0,0,2.256-.107c.969-1.013,26.82-35.052,27.806-36.58a36.658,36.658,0,0,0,5.3-14.23,44.629,44.629,0,0,0-.018-9.7,35.224,35.224,0,0,0-7.454-17.144,45.553,45.553,0,0,0-6.026-5.827,34.282,34.282,0,0,0-15.859-6.609A47.292,47.292,0,0,0,89.437-511.634ZM97.19-509a32.636,32.636,0,0,1,15.683,5.738,44.218,44.218,0,0,1,7.63,7.693,39.988,39.988,0,0,1,4.264,8.563,26.705,26.705,0,0,1,1.41,9.913,22.838,22.838,0,0,1-.423,5.952,34.285,34.285,0,0,1-4.529,11.246c-1.216,1.883-26.467,35.034-26.679,35.034-.176,0-24.511-31.712-26.1-34A32.432,32.432,0,0,1,63.8-469.191a27.489,27.489,0,0,1-.916-9.114,27.36,27.36,0,0,1,1.515-8.918,40.679,40.679,0,0,1,4.194-8.35,43.609,43.609,0,0,1,7.63-7.693,33.9,33.9,0,0,1,12.247-5.276,34.042,34.042,0,0,1,6.52-.586C95.287-509.111,96.274-509.057,97.19-509Z" transform="translate(-0.242)"/>
    <path id="Path_2" data-name="Path 2" class="cls-3" d="M139.833-451.643a23.535,23.535,0,0,0-9.9,4.176c-1.533,1.128-1.8,1.921-.934,2.784.6.6,1.269.441,2.819-.617a20.5,20.5,0,0,1,12.159-3.806,18.726,18.726,0,0,1,7.066,1.181,21.6,21.6,0,0,1,12.916,12.9,21.919,21.919,0,0,1,0,14.168,21.24,21.24,0,0,1-19.877,14.079,19.948,19.948,0,0,1-9.375-2.132,20.992,20.992,0,0,1-11.877-19.013,20.307,20.307,0,0,1,3.789-12.176c1.233-1.815,1.269-2.678.123-3.154-.722-.3-1.286-.018-2.115,1a24.358,24.358,0,0,0-4.018,8.529,30.158,30.158,0,0,0-.352,9.762,24.225,24.225,0,0,0,19.665,19.718,32.552,32.552,0,0,0,8.071,0,24.122,24.122,0,0,0,19.683-19.683,31.6,31.6,0,0,0-.018-8.159,24.155,24.155,0,0,0-19.63-19.56A34.426,34.426,0,0,0,139.833-451.643Z" transform="translate(-49.669 -49.437)"/>
    <g id="store" transform="translate(81.855 -487.881)">
      <path id="Path_18" data-name="Path 18" class="cls-3" d="M22.544,105.247v-2.032H16.618v.847H21.7v.847H15.771v.847h6.1l1.947,3.895v.339H.955v-.339L2.9,105.755H15.771v-.847H3.072v-.847H16.618v-.847H2.225v2.032L.109,109.48v2.413a1.908,1.908,0,0,0,.847,1.566v9.651H23.814v-9.651a1.908,1.908,0,0,0,.847-1.566V109.48Zm-5.715,7.7a1.048,1.048,0,0,1-1.058-1.058v-1.058h2.117v1.058A1.048,1.048,0,0,1,16.83,112.951ZM3.919,110.834H6.035v1.058a1.058,1.058,0,0,1-2.117,0Zm2.963,0H9v1.058a1.058,1.058,0,0,1-2.117,0Zm2.963,0h2.117v1.058a1.058,1.058,0,0,1-2.117,0Zm2.963,0h2.117v1.058a1.058,1.058,0,0,1-2.117,0Zm5.926,0h2.117v1.058a1.058,1.058,0,0,1-2.117,0Zm-15.663,0v1.058a1.048,1.048,0,0,1-1.058,1.058,1.048,1.048,0,0,1-1.058-1.058v-1.058ZM2.014,113.8a1.807,1.807,0,0,0,1.482-.72,1.882,1.882,0,0,0,2.624.339,2.564,2.564,0,0,0,.339-.339,1.882,1.882,0,0,0,2.624.339,2.564,2.564,0,0,0,.339-.339,1.882,1.882,0,0,0,2.624.339,2.564,2.564,0,0,0,.339-.339,1.882,1.882,0,0,0,2.624.339,2.564,2.564,0,0,0,.339-.339,2.027,2.027,0,0,0,1.27.72v6.773H1.8v-6.815a.381.381,0,0,0,.212.042Zm-.212,7.62H16.618v.847H1.8Zm21.166.847h-5.5v-8.593a2.048,2.048,0,0,0,.847-.593,1.882,1.882,0,0,0,2.624.339,2.563,2.563,0,0,0,.339-.339,1.806,1.806,0,0,0,1.482.719.382.382,0,0,0,.212-.042Zm.847-10.371a1.058,1.058,0,0,1-2.117,0v-1.058h2.117Zm0,0" transform="translate(-0.109 -103.215)"/>
      <path id="Path_19" data-name="Path 19" class="cls-3" d="M344.109,359.215h.847v.847h-.847Zm0,0" transform="translate(-325.907 -345.669)"/>
      <path id="Path_20" data-name="Path 20" class="cls-3" d="M61.232,319.215H48.109v4.656H61.232Zm-.847,3.81H48.956v-2.963H60.385Zm0,0" transform="translate(-45.569 -307.786)"/>
    </g>
  </g>
</svg>
