<svg xmlns="http://www.w3.org/2000/svg" width="38.962" height="51.28" viewBox="0 0 38.962 51.28">
  <defs>
    <style>
      .cls-1 {
        fill: #ffa200;
      }

      .cls-2 {
        opacity: 0;
      }

      .cls-3 {
        fill: #fff;
      }
    </style>
  </defs>
  <g id="locationRelief" transform="translate(-59.717 511.9)">
    <path id="Path_9" data-name="Path 9" class="cls-1" d="M19.515-31.82a19.464,19.464,0,0,1,18.408,14C40.918-8.039,33.916.267,33.916.267L19.374,19.159,6.046,2.429,2.455-2.458,1.311-4.719.434-7.21.03-9.25l-.19-1.162a7.56,7.56,0,0,1-.095-2.443c.128-1.7.781-7.82,4.972-12.526A29.177,29.177,0,0,1,8.77-28.914,19.276,19.276,0,0,1,19.515-31.82Z" transform="translate(60.011 -479.943)"/>
    <path id="Path_1" data-name="Path 1" class="cls-2" d="M76.6-511.75a19.248,19.248,0,0,0-10.618,5.3,19.388,19.388,0,0,0-5.831,11.467,24.271,24.271,0,0,0,.2,6.58,21.3,21.3,0,0,0,2.761,6.84c.526.821,15.227,20.089,15.754,20.66a.8.8,0,0,0,1.271-.06c.546-.571,15.118-19.759,15.674-20.62a20.664,20.664,0,0,0,2.99-8.022,25.156,25.156,0,0,0-.01-5.468,19.856,19.856,0,0,0-4.2-9.664,25.681,25.681,0,0,0-3.4-3.285,19.324,19.324,0,0,0-8.94-3.725A26.657,26.657,0,0,0,76.6-511.75Zm4.371,1.482a18.4,18.4,0,0,1,8.84,3.235,24.927,24.927,0,0,1,4.3,4.336,22.54,22.54,0,0,1,2.4,4.827,15.054,15.054,0,0,1,.795,5.588,12.873,12.873,0,0,1-.238,3.355,19.327,19.327,0,0,1-2.553,6.339c-.685,1.061-14.919,19.749-15.039,19.749-.1,0-13.817-17.876-14.711-19.168a18.281,18.281,0,0,1-2.622-5.818,15.5,15.5,0,0,1-.517-5.137,15.423,15.423,0,0,1,.854-5.027,22.931,22.931,0,0,1,2.364-4.707,24.581,24.581,0,0,1,4.3-4.336,19.108,19.108,0,0,1,6.9-2.974,19.193,19.193,0,0,1,3.675-.33Z" transform="translate(-0.265 0)"/>
    <g id="love_1_" data-name="love (1)" transform="translate(66.727 -508.201)">
      <path id="Path_28" data-name="Path 28" class="cls-3" d="M116.425-511.795a5.143,5.143,0,0,0-3.659,3.723,7.8,7.8,0,0,0,.006,2.575,13.4,13.4,0,0,0,4.04,6.545,15.881,15.881,0,0,0,3.862,2.873,1.885,1.885,0,0,0,1.807.171,10.913,10.913,0,0,0,2.334-1.4c3.247-2.442,5.448-5.524,5.98-8.365a6.855,6.855,0,0,0-.1-2.664,5.1,5.1,0,0,0-2.594-3.082,4.145,4.145,0,0,0-2.074-.482,4.019,4.019,0,0,0-1.427.1,5.083,5.083,0,0,0-2.6,1.6l-.209.273-.571-.571a4.305,4.305,0,0,0-1.858-1.192,3.664,3.664,0,0,0-1.509-.216A4.21,4.21,0,0,0,116.425-511.795Z" transform="translate(-108.553 511.916)"/>
      <path id="Path_29" data-name="Path 29" class="cls-3" d="M71.708-240.539c-.564.146-.767.323-4.23,3.773-2.086,2.074-3.57,3.507-3.742,3.6-.609.342-.78.361-3.291.361-2.188,0-2.334-.006-2.524-.127a.863.863,0,0,1-.336-1.186c.273-.495.266-.488,2.727-.526l2.188-.032.361-.178a2.086,2.086,0,0,0-.076-3.716l-.349-.165H59.012c-3.368,0-3.431,0-3.919.146a5.022,5.022,0,0,0-3.628,3.888l-.108.533-1.643,1.649c-1.9,1.915-1.991,2.061-1.738,2.683.1.241,3.748,3.964,4.243,4.332a.8.8,0,0,0,.6.184,1.026,1.026,0,0,0,.514-.1c.089-.057.856-.8,1.712-1.649L56.6-228.61l3.3-.025c3.507-.032,3.672-.044,4.661-.368a7.724,7.724,0,0,0,2-1.065c.279-.209,2.036-1.915,3.932-3.824a39.632,39.632,0,0,0,3.583-3.761,1.669,1.669,0,0,0,.152-.856,1.556,1.556,0,0,0-.178-.894,2.338,2.338,0,0,0-1.021-1.008A2.629,2.629,0,0,0,71.708-240.539Z" transform="translate(-47.873 257.784)"/>
    </g>
  </g>
</svg>
