<svg xmlns="http://www.w3.org/2000/svg" width="214.296" height="214.411" viewBox="0 0 214.296 214.411">
  <g id="my-location" transform="translate(-21.5 490.752)">
    <path id="Path_86" data-name="Path 86" d="M124.993-490.363a11.12,11.12,0,0,0-5.163,4.661c-.96,1.828-1.005,2.513-1.142,13.251-.091,8.225-.32,11.377-.685,11.514-.32.046-2.376.457-4.569.868C92-456.094,71.624-441.427,60.8-422.19a81.082,81.082,0,0,0-9.047,25.039l-.594,3.381-11.377.228c-11.149.228-11.469.274-13.479,1.371a13.827,13.827,0,0,0-3.427,3.107c-1.234,1.828-1.371,2.33-1.371,5.574s.137,3.747,1.371,5.574a13.827,13.827,0,0,0,3.427,3.107c2.01,1.1,2.33,1.142,13.479,1.371l11.377.228.594,3.381a79.027,79.027,0,0,0,13.936,32.578A78.685,78.685,0,0,0,113.3-306.955l5.072,1.005.228,11.377c.228,11.1.274,11.423,1.371,13.434a13.828,13.828,0,0,0,3.107,3.427c1.828,1.234,2.33,1.371,5.574,1.371s3.747-.137,5.574-1.371a13.827,13.827,0,0,0,3.107-3.427c1.1-2.01,1.142-2.33,1.371-13.479L138.929-306l3.381-.594a78.834,78.834,0,0,0,33.355-14.53c15.261-11.56,26.182-29.014,29.563-47.154.411-2.193.822-4.249.868-4.569.137-.366,3.29-.594,11.514-.685,11.1-.137,11.377-.137,13.388-1.279a13.827,13.827,0,0,0,3.427-3.107c1.234-1.828,1.371-2.33,1.371-5.574s-.137-3.747-1.371-5.574A13.827,13.827,0,0,0,231-392.17c-2.01-1.142-2.285-1.142-13.388-1.279-8.225-.091-11.377-.32-11.514-.685-.046-.32-.457-2.376-.868-4.569-5.209-28.055-27.324-52.089-55.15-59.9-2.422-.685-5.894-1.462-7.768-1.782l-3.381-.594L138.7-472.36c-.228-11.149-.274-11.469-1.371-13.479a12.149,12.149,0,0,0-3.107-3.381c-1.645-1.142-2.467-1.416-5.026-1.508A12.7,12.7,0,0,0,124.993-490.363Zm13.662,49.576a58.4,58.4,0,0,1,47.337,47.565,73.4,73.4,0,0,1,0,19.511,60.47,60.47,0,0,1-10.1,24.08,76.612,76.612,0,0,1-13.936,13.8,58.563,58.563,0,0,1-50.81,7.768,58.629,58.629,0,0,1-36.234-33.172c-.868-2.193-2.148-5.986-2.833-8.453-1.1-4.112-1.188-5.118-1.188-13.8,0-8.636.091-9.687,1.188-13.708,3.107-11.423,7.768-19.648,15.49-27.37A57.7,57.7,0,0,1,138.655-440.787Z"/>
    <path id="Path_87" data-name="Path 87" d="M203.964-341.313a39.72,39.72,0,0,0-29.7,21.978c-2.7,5.757-3.564,9.778-3.564,16.86,0,7.4.914,11.377,3.975,17.591A39.4,39.4,0,0,0,199.852-264.5c5.163,1.416,14.439,1.416,19.648,0a39.6,39.6,0,0,0,25.176-20.379c3.061-6.214,3.975-10.189,3.975-17.591s-.914-11.377-3.975-17.591a38.862,38.862,0,0,0-33.4-21.475A50.335,50.335,0,0,0,203.964-341.313Zm4.786,39.472c7.676,2.97.548-8.042,0,0-.594,8.27,7.9-2.422,0,0-7.722,2.33,4.706,6.671,0,0-7.356-10.555-12.337,4.021,0,0C212.314-303.029,205.14-303.258,208.75-301.841Z" transform="translate(-81.027 -81.014)"/>
  </g>
</svg>
